<svg width="20" height="21" viewBox="0 0 20 21" fill="none" xmlns="http://www.w3.org/2000/svg">
<path fill-rule="evenodd" clip-rule="evenodd" d="M0.5 9.94706V19C0.5 19.5522 0.947715 20 1.5 20H6.5V17.5C6.5 15.567 8.067 14 10 14C11.933 14 13.5 15.567 13.5 17.5V20H18.5C19.0523 20 19.5 19.5522 19.5 19V9.94706C19.5 9.66256 19.3788 9.39152 19.1668 9.20182L10.6668 1.59656C10.2872 1.25688 9.71285 1.25688 9.33321 1.59656L0.833205 9.20182C0.621182 9.39152 0.5 9.66256 0.5 9.94706Z" fill="white"/>
<path d="M6.5 20V20.5H7V20H6.5ZM13.5 20H13V20.5H13.5V20ZM19.1668 9.20182L18.8334 9.57444L19.1668 9.20182ZM10.6668 1.59656L11.0002 1.22393L11.0002 1.22393L10.6668 1.59656ZM9.33321 1.59656L8.99981 1.22394L8.99981 1.22394L9.33321 1.59656ZM0.833205 9.20182L1.1666 9.57444L1.1666 9.57444L0.833205 9.20182ZM1 19V9.94706H0V19H1ZM1.5 19.5C1.22386 19.5 1 19.2761 1 19H0C0 19.8284 0.671573 20.5 1.5 20.5V19.5ZM6.5 19.5H1.5V20.5H6.5V19.5ZM7 20V17.5H6V20H7ZM7 17.5C7 15.8431 8.34315 14.5 10 14.5V13.5C7.79086 13.5 6 15.2909 6 17.5H7ZM10 14.5C11.6569 14.5 13 15.8431 13 17.5H14C14 15.2909 12.2091 13.5 10 13.5V14.5ZM13 17.5V20H14V17.5H13ZM18.5 19.5H13.5V20.5H18.5V19.5ZM19 19C19 19.2761 18.7761 19.5 18.5 19.5V20.5C19.3284 20.5 20 19.8284 20 19H19ZM19 9.94706V19H20V9.94706H19ZM18.8334 9.57444C18.9394 9.66929 19 9.80481 19 9.94706H20C20 9.52031 19.8182 9.11376 19.5002 8.8292L18.8334 9.57444ZM10.3334 1.96918L18.8334 9.57444L19.5002 8.8292L11.0002 1.22393L10.3334 1.96918ZM9.6666 1.96918C9.85642 1.79934 10.1436 1.79934 10.3334 1.96918L11.0002 1.22393C10.4307 0.714417 9.56927 0.714418 8.99981 1.22394L9.6666 1.96918ZM1.1666 9.57444L9.6666 1.96918L8.99981 1.22394L0.499807 8.8292L1.1666 9.57444ZM1 9.94706C1 9.80481 1.06059 9.66929 1.1666 9.57444L0.499808 8.8292C0.181772 9.11375 0 9.52031 0 9.94706H1Z" fill="#949598"/>
</svg>
