<svg width="24" height="24" viewBox="0 0 24 24" fill="none" xmlns="http://www.w3.org/2000/svg">
<path fill-rule="evenodd" clip-rule="evenodd" d="M2.5 10.9471V20C2.5 20.5522 2.94772 21 3.5 21H8.5V18.5C8.5 16.567 10.067 15 12 15C13.933 15 15.5 16.567 15.5 18.5V21H20.5C21.0523 21 21.5 20.5522 21.5 20V10.9471C21.5 10.6626 21.3788 10.3915 21.1668 10.2018L12.6668 2.59656C12.2872 2.25688 11.7128 2.25688 11.3332 2.59656L2.8332 10.2018C2.62118 10.3915 2.5 10.6626 2.5 10.9471Z" fill="black"/>
<path d="M8.5 21V21.5H9V21H8.5ZM15.5 21H15V21.5H15.5V21ZM21.1668 10.2018L20.8334 10.5744L21.1668 10.2018ZM12.6668 2.59656L13.0002 2.22393L13.0002 2.22393L12.6668 2.59656ZM11.3332 2.59656L10.9998 2.22394L10.9998 2.22394L11.3332 2.59656ZM2.8332 10.2018L3.1666 10.5744L3.1666 10.5744L2.8332 10.2018ZM3 20V10.9471H2V20H3ZM3.5 20.5C3.22386 20.5 3 20.2761 3 20H2C2 20.8284 2.67157 21.5 3.5 21.5V20.5ZM8.5 20.5H3.5V21.5H8.5V20.5ZM9 21V18.5H8V21H9ZM9 18.5C9 16.8431 10.3431 15.5 12 15.5V14.5C9.79086 14.5 8 16.2909 8 18.5H9ZM12 15.5C13.6569 15.5 15 16.8431 15 18.5H16C16 16.2909 14.2091 14.5 12 14.5V15.5ZM15 18.5V21H16V18.5H15ZM20.5 20.5H15.5V21.5H20.5V20.5ZM21 20C21 20.2761 20.7761 20.5 20.5 20.5V21.5C21.3284 21.5 22 20.8284 22 20H21ZM21 10.9471V20H22V10.9471H21ZM20.8334 10.5744C20.9394 10.6693 21 10.8048 21 10.9471H22C22 10.5203 21.8182 10.1138 21.5002 9.8292L20.8334 10.5744ZM12.3334 2.96918L20.8334 10.5744L21.5002 9.8292L13.0002 2.22393L12.3334 2.96918ZM11.6666 2.96918C11.8564 2.79934 12.1436 2.79934 12.3334 2.96918L13.0002 2.22393C12.4307 1.71442 11.5693 1.71442 10.9998 2.22394L11.6666 2.96918ZM3.1666 10.5744L11.6666 2.96918L10.9998 2.22394L2.49981 9.8292L3.1666 10.5744ZM3 10.9471C3 10.8048 3.06059 10.6693 3.1666 10.5744L2.49981 9.8292C2.18177 10.1138 2 10.5203 2 10.9471H3Z" fill="black"/>
</svg>
