<svg width="37" height="34" viewBox="0 0 37 34" fill="none" xmlns="http://www.w3.org/2000/svg">
<path d="M15.2056 8.27841L15.2814 8.67033H15.6806H18.8277H19.3953L19.3054 8.10989C18.5549 3.42669 14.8991 0.728043 10.3505 0.728043C7.55963 0.728043 5.11493 1.77034 3.37179 3.69381C1.63158 5.61404 0.623917 8.37451 0.623917 11.7588C0.623917 15.1284 1.6242 17.8886 3.36049 19.8124C5.1 21.7398 7.54495 22.7895 10.3505 22.7895C15.0822 22.7895 18.6134 19.7953 19.3054 15.493L19.3948 14.9374L18.832 14.9323L15.685 14.904L15.2872 14.9004L15.2067 15.29C14.7226 17.6342 12.7721 18.9583 10.3788 18.9583C8.75223 18.9583 7.34555 18.3393 6.33836 17.1578C5.32564 15.9698 4.68201 14.1706 4.68201 11.7588C4.68201 9.3605 5.31892 7.56089 6.32864 6.36935C7.33246 5.18479 8.73881 4.55932 10.3788 4.55932C12.7974 4.55932 14.7468 5.90807 15.2056 8.27841Z" fill="#2577FE" stroke="#2577FE" stroke-width="0.967742"/>
<path d="M13.3548 16.7751V17.1622H13.7419H14.9894H15.3765V16.7751V14.2817H16.6679C17.7003 14.2817 18.5194 13.9664 19.0805 13.4002C19.64 12.8357 19.9015 12.0637 19.9015 11.2295C19.9015 10.3902 19.6403 9.61776 19.0801 9.05422C18.5185 8.48921 17.6992 8.17736 16.6679 8.17736H13.7419H13.3548V8.56445V16.7751ZM16.5431 12.4415H15.3765V10.0176H16.5431C17.0799 10.0176 17.3946 10.1642 17.5772 10.3515C17.7619 10.541 17.8685 10.8304 17.8685 11.2295C17.8685 11.622 17.7624 11.9124 17.5765 12.104C17.3932 12.293 17.0781 12.4415 16.5431 12.4415Z" fill="#04028A" stroke="#04028A" stroke-width="0.774194"/>
<path d="M31.2701 8.27841L31.3459 8.67033H31.7451H34.8922H35.4598L35.37 8.10989C34.6194 3.42669 30.9636 0.728043 26.415 0.728043C23.6241 0.728043 21.1794 1.77034 19.4363 3.69381C17.6961 5.61404 16.6884 8.37451 16.6884 11.7588C16.6884 15.1284 17.6887 17.8886 19.425 19.8124C21.1645 21.7398 23.6095 22.7895 26.415 22.7895C31.1467 22.7895 34.6779 19.7953 35.3699 15.493L35.4593 14.9374L34.8965 14.9323L31.7495 14.904L31.3517 14.9004L31.2713 15.29C30.7871 17.6342 28.8366 18.9583 26.4433 18.9583C24.8167 18.9583 23.4101 18.3393 22.4029 17.1578C21.3902 15.9698 20.7465 14.1706 20.7465 11.7588C20.7465 9.3605 21.3834 7.56089 22.3932 6.36935C23.397 5.18479 24.8033 4.55932 26.4433 4.55932C28.8619 4.55932 30.8113 5.90807 31.2701 8.27841Z" fill="#2577FE" stroke="#2577FE" stroke-width="0.967742"/>
<path d="M29.4194 16.7751V17.1622H29.8065H31.0539H31.441V16.7751V14.2817H32.7324C33.7648 14.2817 34.5839 13.9664 35.145 13.4002C35.7045 12.8357 35.966 12.0637 35.966 11.2295C35.966 10.3902 35.7048 9.61776 35.1446 9.05422C34.583 8.48921 33.7637 8.17736 32.7324 8.17736H29.8065H29.4194V8.56445V16.7751ZM32.6076 12.4415H31.441V10.0176H32.6076C33.1444 10.0176 33.4591 10.1642 33.6417 10.3515C33.8264 10.541 33.933 10.8304 33.933 11.2295C33.933 11.622 33.8269 11.9124 33.6411 12.104C33.4577 12.293 33.1426 12.4415 32.6076 12.4415Z" fill="#04028A" stroke="#04028A" stroke-width="0.774194"/>
<path d="M2.51611 26.0169C2.51611 28.0701 4.14744 30.0393 7.05123 31.4912C9.95502 32.9431 13.8934 33.7588 18 33.7588C22.1066 33.7588 26.0449 32.9431 28.9487 31.4912C31.8525 30.0393 33.4839 28.0701 33.4839 26.0169L29.7065 26.0169C29.7065 27.5692 28.4732 29.058 26.2778 30.1557C24.0824 31.2534 21.1048 31.8701 18 31.8701C14.8952 31.8701 11.9176 31.2534 9.7222 30.1557C7.5268 29.058 6.29343 27.5692 6.29343 26.0169H2.51611Z" fill="black"/>
</svg>
