<svg width="111" height="72" viewBox="0 0 111 72" fill="none" xmlns="http://www.w3.org/2000/svg">
<path d="M47.1424 24.975L47.3816 26.2287H48.658H57.915H59.7208L59.439 24.4451C57.1232 9.78595 45.4457 1.54296 31.4546 1.54296C22.8411 1.54296 15.4867 4.81023 10.3072 10.8399C5.14664 16.8476 2.25598 25.4637 2.25598 36.0001C2.25598 46.5012 5.20839 55.1181 10.4377 61.1339C15.6836 67.1687 23.1129 70.4571 31.7693 70.4571C46.3725 70.4571 57.3102 60.9814 59.4389 47.556L59.7218 45.7715H57.915H48.658H47.3976L47.1461 47.0066C45.6778 54.2186 39.2101 58.1145 31.7693 58.1145C26.7707 58.1145 22.5115 56.2604 19.4771 52.6721C16.4212 49.0584 14.4833 43.5345 14.4833 36.0001C14.4833 28.4935 16.329 22.9655 19.3015 19.3439C22.246 15.7565 26.4187 13.8858 31.4546 13.8858C39.0375 13.8858 45.7606 17.7324 47.1424 24.975Z" fill="#2577FE" stroke="#2577FE" stroke-width="3.08571"/>
<path d="M41.9734 50.3652V51.3938H43.002H46.0877H47.1162V50.3652V42.1711H51.7448C54.948 42.1711 57.422 41.4078 59.1005 39.8781C60.7949 38.3341 61.5161 36.1587 61.5161 33.6921C61.5161 31.2149 60.7998 28.929 59.1354 27.2628C57.4684 25.594 54.9892 24.6854 51.7448 24.6854H43.002H41.9734V25.714V50.3652ZM51.3896 37.0283H47.1162V29.9131H51.3896C53.1697 29.9131 54.0799 30.3707 54.573 30.9241C55.0868 31.5009 55.3447 32.3982 55.3447 33.6921C55.3447 34.9688 55.087 35.7178 54.6202 36.1764C54.1448 36.6433 53.2299 37.0283 51.3896 37.0283Z" fill="#04028A" stroke="#04028A" stroke-width="2.05714"/>
<path d="M94.8563 24.975L95.0955 26.2287H96.3718H105.629H107.435L107.153 24.4451C104.837 9.78595 93.1595 1.54296 79.1685 1.54296C70.5549 1.54296 63.2005 4.81023 58.021 10.8399C52.8605 16.8476 49.9698 25.4637 49.9698 36.0001C49.9698 46.5012 52.9223 55.1181 58.1516 61.1339C63.3975 67.1687 70.8268 70.4571 79.4831 70.4571C94.0864 70.4571 105.024 60.9814 107.153 47.556L107.436 45.7715H105.629H96.3718H95.1114L94.86 47.0066C93.3917 54.2186 86.924 58.1145 79.4831 58.1145C74.4845 58.1145 70.2253 56.2604 67.191 52.6721C64.1351 49.0584 62.1971 43.5345 62.1971 36.0001C62.1971 28.4935 64.0429 22.9655 67.0154 19.3439C69.9598 15.7565 74.1326 13.8858 79.1685 13.8858C86.7514 13.8858 93.4744 17.7324 94.8563 24.975Z" fill="#2577FE" stroke="#2577FE" stroke-width="3.08571"/>
<path d="M89.6882 50.3652V51.3938H90.7168H93.8025H94.8311V50.3652V42.1711H99.4596C102.663 42.1711 105.137 41.4078 106.815 39.8781C108.51 38.3341 109.231 36.1587 109.231 33.6921C109.231 31.2149 108.515 28.929 106.85 27.2628C105.183 25.594 102.704 24.6854 99.4596 24.6854H90.7168H89.6882V25.714V50.3652ZM99.1044 37.0283H94.8311V29.9131H99.1044C100.885 29.9131 101.795 30.3707 102.288 30.9241C102.802 31.5009 103.06 32.3982 103.06 33.6921C103.06 34.9688 102.802 35.7178 102.335 36.1764C101.86 36.6433 100.945 37.0283 99.1044 37.0283Z" fill="#04028A" stroke="#04028A" stroke-width="2.05714"/>
</svg>
