<svg width="290" height="290" viewBox="0 0 290 290" fill="none" xmlns="http://www.w3.org/2000/svg">
<g clip-path="url(#clip0_19_232)">
<path d="M290 0H0V290H290V0Z" fill="#D5E6FD"/>
<path d="M76.7728 87.6815C79.0261 81.9366 82.857 76.8198 87.7343 73.0394C94.0406 68.1512 102.523 65.5545 110.185 67.78C115.631 69.3616 120.171 73.1571 125.471 75.1726C137.341 79.6856 150.433 74.6756 162.462 70.608C181.311 64.2344 201.817 60.1292 221.036 65.2813C237.615 69.7259 252.436 81.5312 258.946 97.4139C265.455 113.296 262.77 132.982 251.033 145.507C244.045 152.965 233.989 158.256 230.547 167.879C229.163 171.748 229.029 175.946 229.148 180.054C229.417 189.357 230.781 199.268 226.393 207.475C222.774 214.244 215.653 218.651 208.183 220.416C200.714 222.181 192.884 221.582 185.312 220.324C158.234 215.826 132.934 203.02 111.5 185.872C100.098 176.75 89.6338 166.241 81.5016 154.066C77.4822 148.048 73.8235 141.531 71.3777 134.699C69.1882 128.583 72.6525 120.643 73.0655 114.147C73.6298 105.271 73.4726 96.0961 76.7728 87.6815Z" fill="#AECDF3"/>
<path d="M138.519 95.4179L135.029 94.7364L123.636 153.068L127.126 153.749L138.519 95.4179Z" fill="#F8FAFB"/>
<path d="M134.548 97.1645L128.864 126.266C129.979 126.25 131.17 126.391 132.39 126.761L137.922 98.437L134.548 97.1645Z" fill="#A7A9AC"/>
<path d="M156.673 124.837L107.126 115.16C104.711 114.689 103.121 112.327 103.593 109.912L109.505 79.6415C109.977 77.2264 112.338 75.6366 114.754 76.1082L164.301 85.7855C166.716 86.257 168.306 88.6188 167.834 91.0339L161.921 121.304C161.45 123.719 159.088 125.31 156.673 124.837Z" fill="#F8FAFB"/>
<path d="M136.959 95.2807C137.012 95.225 137.064 95.1687 137.115 95.1107C137.747 94.3933 138.197 93.5163 138.414 92.5854C138.581 91.8703 138.739 90.806 139.576 90.5716C140.234 90.3872 140.918 90.9347 141.129 91.5849C141.34 92.2351 141.202 92.9415 141.048 93.6068C140.778 94.7691 140.46 95.921 140.096 97.0572C141.222 97.4168 142.349 97.7764 143.475 98.136C144.13 98.3454 144.807 98.5669 145.315 99.0309C145.822 99.4949 146.111 100.274 145.803 100.889C145.375 101.745 144.163 101.776 143.235 101.542C144.279 101.872 145.031 103.029 144.788 104.097C144.545 105.164 143.237 105.885 142.247 105.418C142.954 105.592 143.349 106.447 143.171 107.153C142.993 107.86 142.371 108.389 141.686 108.637C141.001 108.886 140.256 108.897 139.528 108.877C136.739 108.802 133.961 108.325 131.308 107.465C130.913 107.337 130.506 107.192 130.209 106.902C129.891 106.591 129.735 106.148 129.662 105.709C129.445 104.392 129.885 103.06 130.401 101.829C130.843 100.78 131.345 99.7571 131.905 98.7665C132.208 98.2311 132.536 97.6964 133 97.2933C133.629 96.7481 134.348 96.9134 135.059 96.6048C135.771 96.2957 136.422 95.8433 136.959 95.2807Z" fill="#2456A2"/>
<path d="M128.515 105.116C128.576 105.597 128.601 106.105 128.28 106.364C128.021 106.574 127.646 106.526 127.318 106.467C126.765 106.367 126.213 106.266 125.66 106.166C125.474 106.132 125.281 106.096 125.126 105.986C124.822 105.772 124.759 105.352 124.741 104.981C124.599 102.097 125.604 99.1736 127.49 96.9876C127.715 96.7266 127.968 96.4656 128.299 96.3693C128.555 96.2951 128.83 96.3287 129.094 96.3635C129.734 96.447 130.394 96.4934 131.028 96.6158C131.445 96.6964 131.86 96.7144 131.567 97.2219C131.255 97.7613 130.785 98.2392 130.452 98.7786C129.832 99.7826 129.254 100.821 128.872 101.937C128.609 102.709 128.442 103.52 128.429 104.336C128.427 104.546 128.478 104.826 128.515 105.116Z" fill="#2456A2"/>
<path d="M200.64 213.163C200.64 213.163 206.391 217.579 203.174 225.969C200.651 232.548 198.102 233.651 186.294 234.948C173.577 236.344 135.101 240.631 135.101 240.631C135.101 240.631 124.113 241.485 113.855 229.496C103.597 217.505 25.4788 127.1 25.4788 127.1C25.4788 127.1 18.6441 119.877 19.5918 114.606C20.539 109.335 20.5685 104.535 30.0069 104.332C39.4452 104.127 85.2589 103.815 85.2589 103.815C85.2589 103.815 93.4229 102.235 104.482 113.523C115.543 124.812 200.64 213.163 200.64 213.163Z" fill="#34414C"/>
<path d="M203.174 225.969C200.651 232.548 198.102 233.651 186.294 234.948C173.577 236.344 135.101 240.631 135.101 240.631C135.101 240.631 124.113 241.485 113.855 229.496C103.597 217.505 25.4788 127.1 25.4788 127.1C25.4788 127.1 18.6441 119.877 19.5918 114.606C20.3667 110.294 20.5308 106.3 25.73 104.876C21.681 108.918 27.068 113.347 27.068 113.347C27.068 113.347 113.035 211.477 121.425 220.598C129.814 229.721 141.059 228.577 141.059 228.577C141.059 228.577 185.704 224.053 197.574 222.953C201.087 222.628 202.981 220.961 203.913 218.761C204.325 220.685 204.277 223.094 203.174 225.969Z" fill="#1B242B"/>
<path d="M156.613 213.072C155.844 215.441 158.389 218.391 162.298 219.661C166.207 220.931 170 220.04 170.77 217.671C171.54 215.302 168.995 212.351 165.085 211.082C161.176 209.811 157.383 210.702 156.613 213.072Z" fill="#1B242B"/>
<path d="M188.542 204.836L117.458 210.476L37.3885 119.95L104.396 118.014L188.542 204.836Z" fill="#B9E5FA"/>
<path d="M71.1028 147.441L123.078 143.227C123.585 143.186 124.084 143.373 124.438 143.737L145.061 164.933C146.012 165.91 145.488 167.552 144.149 167.799L94.2779 177.012C93.6839 177.122 93.0761 176.909 92.68 176.453L69.9527 150.258C69.0368 149.203 69.7096 147.554 71.1028 147.441Z" fill="white"/>
<path d="M70.1284 148.363L114.125 157.033L124.438 143.737" stroke="#B29CE5" stroke-miterlimit="10"/>
<g opacity="0.2">
<path d="M79.978 118.72L90.4481 118.417L96.4685 186.745L84.5263 173.243L79.978 118.72Z" fill="white"/>
</g>
<g opacity="0.3">
<path d="M104.444 195.761L95.0493 118.284L104.396 118.014L119.896 134.007L130.357 209.452L117.458 210.476L104.444 195.761Z" fill="white"/>
</g>
<path d="M52.9401 111.807C52.7701 112.33 53.5032 113.037 54.578 113.387C55.6527 113.736 56.6613 113.595 56.8313 113.072C57.0012 112.548 56.2681 111.841 55.1934 111.492C54.1186 111.143 53.11 111.284 52.9401 111.807Z" fill="#1B242B"/>
<path d="M74.3166 110.985C74.0231 111.888 75.2886 113.109 77.1435 113.712C78.9983 114.315 80.7401 114.071 81.033 113.168C81.3265 112.265 80.0603 111.045 78.2055 110.442C76.3518 109.839 74.6101 110.082 74.3166 110.985Z" fill="#1B242B"/>
<path d="M49.2426 113.751L38.2968 113.988C38.2968 113.988 36.2216 114.219 35.8051 113.178C35.3887 112.137 35.88 111.844 37.3775 111.764C38.8751 111.685 47.5327 111.695 47.5327 111.695C47.5327 111.695 49.8029 111.329 50.4403 112.329C51.0783 113.329 50.3684 113.727 49.2426 113.751Z" fill="#1B242B"/>
<path d="M95.5887 112.655L84.6429 112.891C84.6429 112.891 82.5677 113.123 82.1512 112.082C81.7348 111.04 82.226 110.747 83.7242 110.667C85.2217 110.588 93.8794 110.598 93.8794 110.598C93.8794 110.598 96.1495 110.232 96.7869 111.232C97.4243 112.232 96.7139 112.63 95.5887 112.655Z" fill="#1B242B"/>
<path d="M34.7293 132.888L37.7395 136.315C38.4859 137.164 39.8147 137.146 40.5374 136.276C41.1156 135.579 41.1011 134.566 40.5043 133.886L37.4935 130.459C36.7471 129.61 35.4183 129.628 34.6956 130.498C34.1179 131.195 34.1319 132.208 34.7293 132.888Z" fill="#34414C"/>
<path d="M67.7005 125.464L78.0251 123.922C78.0251 123.922 93.0964 126.959 96.9203 111.775L59.9175 107.276C59.9175 107.276 61.2671 115.823 68.8025 119.648L67.7005 125.464Z" fill="#D1D3D4"/>
<path d="M154.04 202.559L160.634 199.812L189.944 202.059C187.931 199.971 185.686 197.641 183.266 195.129L158.436 194.756L154.04 202.559Z" fill="#D1D3D4"/>
<path d="M191.622 109.265L254.27 101.031C255.883 100.82 257.084 102.485 256.374 103.948L232.509 153.123C232.509 153.123 195.776 165.883 157.496 154.283C157.496 154.283 179.709 140.354 189.956 110.636C190.21 109.901 190.851 109.366 191.622 109.265Z" fill="white"/>
<path d="M196.078 135.149L195.63 135.819L192.304 136.089L192.751 135.419L196.078 135.149ZM190.312 140.488L194.222 134.627C194.419 134.332 194.666 134.079 194.963 133.869C195.26 133.659 195.574 133.494 195.905 133.374C196.236 133.254 196.548 133.182 196.843 133.158C197.076 133.139 197.256 133.139 197.382 133.159C197.508 133.178 197.599 133.198 197.653 133.219L196.924 133.925C196.885 133.916 196.829 133.905 196.757 133.891C196.687 133.878 196.584 133.877 196.447 133.888C196.134 133.913 195.864 133.998 195.636 134.141C195.412 134.284 195.215 134.483 195.045 134.738L191.26 140.411L190.312 140.488ZM196.232 140.108C195.638 140.157 195.198 140.089 194.913 139.905C194.632 139.718 194.507 139.437 194.538 139.06C194.573 138.681 194.767 138.228 195.119 137.7C195.47 137.172 195.896 136.698 196.394 136.277C196.897 135.854 197.432 135.512 197.997 135.253C198.567 134.991 199.131 134.837 199.688 134.792C200.009 134.766 200.297 134.785 200.55 134.849C200.804 134.913 200.992 135.035 201.115 135.215C201.24 135.393 201.269 135.64 201.202 135.956C201.135 136.272 200.942 136.671 200.621 137.151L200.398 137.487L195.641 137.873L196.098 137.189L199.89 136.881C200.084 136.59 200.187 136.337 200.2 136.12C200.215 135.903 200.14 135.739 199.973 135.628C199.81 135.517 199.556 135.475 199.213 135.503C198.836 135.533 198.457 135.638 198.077 135.817C197.701 135.993 197.356 136.212 197.043 136.472C196.731 136.732 196.48 137.004 196.29 137.288L195.986 137.744C195.727 138.133 195.587 138.456 195.567 138.713C195.552 138.968 195.642 139.154 195.837 139.272C196.034 139.387 196.324 139.429 196.707 139.398C196.956 139.377 197.2 139.33 197.44 139.256C197.683 139.179 197.918 139.075 198.145 138.945C198.373 138.812 198.586 138.653 198.786 138.468L199.559 138.608C199.289 138.875 198.975 139.116 198.616 139.331C198.259 139.544 197.876 139.719 197.469 139.856C197.062 139.99 196.65 140.075 196.232 140.108ZM202.817 139.574C202.222 139.622 201.782 139.554 201.497 139.37C201.216 139.183 201.091 138.902 201.122 138.525C201.157 138.146 201.351 137.693 201.703 137.165C202.055 136.638 202.48 136.163 202.979 135.742C203.481 135.319 204.016 134.977 204.581 134.718C205.151 134.456 205.715 134.302 206.272 134.257C206.593 134.231 206.881 134.25 207.134 134.314C207.388 134.378 207.576 134.5 207.699 134.68C207.824 134.858 207.853 135.105 207.786 135.421C207.72 135.738 207.526 136.136 207.206 136.617L206.982 136.952L202.226 137.338L202.682 136.654L206.474 136.346C206.668 136.056 206.771 135.802 206.784 135.585C206.799 135.368 206.724 135.204 206.558 135.093C206.394 134.982 206.14 134.94 205.798 134.968C205.42 134.998 205.041 135.103 204.661 135.282C204.285 135.458 203.94 135.677 203.628 135.937C203.315 136.197 203.064 136.469 202.874 136.753L202.57 137.209C202.311 137.598 202.171 137.921 202.152 138.178C202.136 138.433 202.226 138.619 202.421 138.737C202.618 138.852 202.908 138.894 203.291 138.863C203.54 138.842 203.784 138.795 204.024 138.721C204.268 138.644 204.503 138.54 204.729 138.41C204.957 138.277 205.171 138.118 205.37 137.933L206.143 138.073C205.874 138.34 205.559 138.581 205.201 138.796C204.843 139.009 204.461 139.184 204.053 139.321C203.646 139.455 203.234 139.54 202.817 139.574ZM209.144 139.059C208.63 139.101 208.248 139.03 207.999 138.845C207.751 138.658 207.649 138.374 207.692 137.995C207.737 137.612 207.941 137.149 208.305 136.603C208.666 136.062 209.09 135.584 209.578 135.168C210.065 134.752 210.58 134.42 211.121 134.171C211.662 133.921 212.192 133.776 212.711 133.734C213.113 133.701 213.393 133.731 213.552 133.824C213.714 133.914 213.81 134.025 213.839 134.156C213.873 134.284 213.895 134.39 213.905 134.474L213.985 134.467L215.676 131.933L216.624 131.856L212.043 138.722L211.127 138.797L211.655 138.006L211.543 138.015C211.411 138.114 211.232 138.241 211.008 138.394C210.786 138.545 210.518 138.687 210.205 138.818C209.894 138.947 209.54 139.027 209.144 139.059ZM209.746 138.338C210.127 138.307 210.503 138.198 210.876 138.012C211.25 137.823 211.604 137.575 211.938 137.269C212.272 136.961 212.57 136.612 212.829 136.223C213.086 135.839 213.243 135.508 213.301 135.23C213.361 134.95 213.314 134.741 213.159 134.601C213.005 134.459 212.735 134.404 212.35 134.435C211.948 134.468 211.556 134.581 211.173 134.775C210.795 134.967 210.441 135.214 210.112 135.518C209.787 135.819 209.503 136.151 209.262 136.513C209.017 136.879 208.862 137.207 208.796 137.496C208.734 137.782 208.777 138.003 208.925 138.158C209.076 138.31 209.35 138.37 209.746 138.338ZM182.254 152.158L186.835 145.291L187.783 145.214L186.092 147.749L186.172 147.743C186.302 147.648 186.474 147.526 186.69 147.377C186.91 147.226 187.173 147.086 187.479 146.958C187.789 146.827 188.145 146.745 188.546 146.713C189.066 146.67 189.452 146.742 189.703 146.926C189.955 147.111 190.059 147.393 190.016 147.773C189.973 148.153 189.771 148.613 189.41 149.154C189.047 149.699 188.62 150.181 188.131 150.599C187.643 151.015 187.13 151.349 186.59 151.6C186.051 151.849 185.525 151.994 185.011 152.036C184.615 152.068 184.334 152.039 184.168 151.949C184.005 151.856 183.905 151.745 183.871 151.615C183.838 151.482 183.818 151.372 183.811 151.283L183.698 151.293L183.17 152.084L182.254 152.158ZM184.904 149.507C184.645 149.896 184.484 150.234 184.422 150.52C184.362 150.804 184.407 151.019 184.558 151.166C184.71 151.31 184.976 151.366 185.357 151.335C185.753 151.303 186.142 151.189 186.523 150.993C186.909 150.795 187.268 150.542 187.6 150.233C187.936 149.923 188.227 149.584 188.471 149.218C188.713 148.855 188.864 148.535 188.924 148.255C188.988 147.973 188.942 147.758 188.788 147.609C188.638 147.459 188.362 147.4 187.96 147.433C187.574 147.464 187.196 147.572 186.824 147.756C186.455 147.939 186.106 148.18 185.778 148.482C185.452 148.781 185.161 149.123 184.904 149.507ZM190.887 151.571C190.496 151.603 190.182 151.57 189.946 151.473C189.71 151.374 189.577 151.214 189.546 150.995C189.517 150.773 189.614 150.495 189.838 150.159C190.035 149.864 190.264 149.62 190.525 149.425C190.788 149.228 191.071 149.068 191.374 148.944C191.678 148.82 191.987 148.721 192.302 148.646C192.622 148.57 192.936 148.504 193.243 148.449C193.645 148.379 193.969 148.324 194.215 148.285C194.466 148.243 194.662 148.192 194.803 148.132C194.947 148.072 195.062 147.978 195.147 147.851L195.165 147.824C195.385 147.493 195.448 147.245 195.354 147.079C195.262 146.913 194.998 146.848 194.561 146.884C194.108 146.92 193.698 147.032 193.331 147.218C192.964 147.404 192.665 147.596 192.435 147.792L191.714 147.597C192.084 147.271 192.461 147.01 192.845 146.814C193.233 146.615 193.61 146.468 193.974 146.373C194.344 146.275 194.683 146.214 194.994 146.189C195.192 146.173 195.406 146.174 195.637 146.194C195.871 146.21 196.069 146.269 196.229 146.371C196.392 146.472 196.473 146.637 196.471 146.868C196.469 147.098 196.332 147.418 196.059 147.827L193.796 151.221L192.848 151.298L193.313 150.6L193.265 150.604C193.126 150.721 192.939 150.849 192.704 150.989C192.469 151.129 192.197 151.253 191.889 151.363C191.58 151.472 191.246 151.542 190.887 151.571ZM191.506 150.848C191.881 150.818 192.238 150.731 192.577 150.587C192.919 150.443 193.22 150.268 193.481 150.063C193.745 149.858 193.948 149.648 194.091 149.433L194.574 148.709C194.507 148.753 194.394 148.797 194.235 148.841C194.081 148.883 193.907 148.924 193.714 148.963C193.525 148.999 193.341 149.033 193.163 149.065C192.989 149.094 192.848 149.118 192.739 149.137C192.474 149.184 192.215 149.246 191.96 149.324C191.71 149.4 191.48 149.502 191.269 149.631C191.063 149.758 190.893 149.921 190.759 150.123C190.576 150.398 190.559 150.596 190.709 150.717C190.863 150.835 191.128 150.879 191.506 150.848ZM197.961 150.984C197.383 151.031 196.961 150.957 196.695 150.763C196.429 150.569 196.318 150.281 196.359 149.899C196.401 149.517 196.594 149.069 196.937 148.555C197.286 148.032 197.709 147.561 198.206 147.142C198.707 146.721 199.241 146.381 199.807 146.121C200.376 145.859 200.94 145.706 201.497 145.66C201.931 145.625 202.277 145.66 202.536 145.766C202.794 145.872 202.954 146.037 203.016 146.26C203.077 146.483 203.027 146.754 202.866 147.071L201.918 147.148C202.002 146.92 201.98 146.725 201.852 146.564C201.728 146.401 201.457 146.336 201.039 146.37C200.669 146.4 200.292 146.507 199.906 146.69C199.524 146.871 199.159 147.114 198.809 147.417C198.464 147.718 198.162 148.062 197.903 148.451C197.637 148.849 197.481 149.19 197.434 149.472C197.39 149.755 197.452 149.967 197.619 150.108C197.788 150.248 198.061 150.303 198.436 150.273C198.682 150.253 198.929 150.199 199.178 150.111C199.427 150.023 199.665 149.906 199.894 149.761C200.123 149.616 200.329 149.447 200.513 149.254L201.461 149.177C201.205 149.485 200.89 149.77 200.516 150.031C200.146 150.289 199.74 150.504 199.299 150.675C198.863 150.844 198.417 150.947 197.961 150.984ZM203.982 148.617L204.619 147.639L204.811 147.624L209.041 145.111L210.214 145.016L205.718 147.677L205.638 147.683L203.982 148.617ZM201.845 150.567L206.426 143.7L207.374 143.623L202.793 150.49L201.845 150.567ZM205.766 150.248L205.056 147.896L206.097 147.291L206.971 150.15L205.766 150.248Z" fill="#1B242B"/>
<path d="M256.374 103.948C257.084 102.485 255.883 100.819 254.27 101.031L191.622 109.265C190.851 109.367 190.21 109.901 189.956 110.636C189.072 113.199 188.095 115.637 187.055 117.966L253.467 109.938L256.374 103.948Z" fill="#2456A2"/>
<path d="M241.568 106.651C241.609 107.282 241.252 107.819 240.77 107.851C240.288 107.882 239.864 107.396 239.822 106.765C239.781 106.134 240.138 105.597 240.62 105.565C241.102 105.534 241.527 106.02 241.568 106.651Z" fill="white"/>
<path d="M245.059 106.422C245.1 107.053 244.743 107.591 244.261 107.622C243.779 107.654 243.355 107.168 243.313 106.537C243.272 105.906 243.629 105.369 244.111 105.337C244.593 105.305 245.017 105.791 245.059 106.422Z" fill="white"/>
<path d="M248.549 106.195C248.59 106.826 248.233 107.363 247.751 107.395C247.269 107.426 246.845 106.94 246.803 106.309C246.762 105.678 247.119 105.14 247.601 105.109C248.084 105.077 248.508 105.563 248.549 106.195Z" fill="white"/>
<path d="M189.126 123.117C189.362 123.117 242.106 117.457 242.106 117.457" stroke="#2456A2" stroke-width="0.5669" stroke-miterlimit="10" stroke-linecap="round" stroke-linejoin="round"/>
<path d="M187.554 128.069L239.748 122.645" stroke="#2456A2" stroke-width="0.5669" stroke-miterlimit="10" stroke-linecap="round" stroke-linejoin="round"/>
<path d="M185.117 133.493L235.66 128.619" stroke="#2456A2" stroke-width="0.5669" stroke-miterlimit="10" stroke-linecap="round" stroke-linejoin="round"/>
<path d="M181.109 139.231C181.109 139.231 222.062 135.851 232.988 134.514" stroke="#2456A2" stroke-width="0.5669" stroke-miterlimit="10" stroke-linecap="round" stroke-linejoin="round"/>
<path d="M176.942 144.419C177.178 144.419 201.782 144.655 229.922 140.567" stroke="#2456A2" stroke-width="0.5669" stroke-miterlimit="10" stroke-linecap="round" stroke-linejoin="round"/>
<path d="M172.069 148.978C172.069 148.978 190.462 152.751 225.835 147.013" stroke="#2456A2" stroke-width="0.5669" stroke-miterlimit="10" stroke-linecap="round" stroke-linejoin="round"/>
<path d="M189.64 119.415L179.326 126.763L143.603 76.6215C141.582 73.7853 142.25 69.8117 145.086 67.791C147.922 65.7703 151.896 66.4373 153.916 69.274L189.64 119.415Z" fill="#FBCE67"/>
<path d="M149.538 69.7418L145.645 72.5162L185.12 127.916L189.013 125.142L149.538 69.7418Z" fill="#E5B553"/>
<path d="M145.086 67.791C142.25 69.8117 141.583 73.7853 143.603 76.6215L144.478 77.8493C146.814 76.4208 152.056 73.1682 155.088 70.9183L153.917 69.274C151.896 66.4373 147.922 65.7703 145.086 67.791Z" fill="#EA4E4E"/>
<path d="M143.603 76.6215L144.477 77.8493C145.212 77.3998 146.235 76.77 147.386 76.0473C145.704 72.652 145.044 69.9805 144.926 67.9168C142.23 69.9724 141.622 73.841 143.603 76.6215Z" fill="#C64646"/>
<path d="M179.326 126.762L190.121 132.792C190.797 133.157 191.601 132.593 191.488 131.833L189.64 119.415C189.64 119.415 182.064 119.591 179.326 126.762Z" fill="#FFE8BB"/>
<path d="M191.488 131.833L190.845 127.513C188.317 128.094 186.901 129.476 186.148 130.573L190.12 132.792C190.797 133.157 191.601 132.594 191.488 131.833Z" fill="#23201A"/>
<path d="M143.911 77.0536L148.564 83.5844C150.732 82.4284 155.381 79.7454 158.908 76.2799L154.247 69.7375C152.779 71.2472 149.489 74.1959 143.911 77.0536Z" fill="#23201A"/>
<path d="M145.01 78.1237C145.01 78.1237 150.846 75.7741 154.927 71.0587" stroke="#FBCE67" stroke-width="0.2634" stroke-miterlimit="10" stroke-linecap="round" stroke-linejoin="round"/>
<path d="M146.193 79.7842C146.193 79.7842 152.028 77.4346 156.11 72.7192" stroke="#FBCE67" stroke-width="0.2634" stroke-miterlimit="10" stroke-linecap="round" stroke-linejoin="round"/>
<path d="M147.376 81.4448C147.376 81.4448 153.212 79.0952 157.293 74.3798" stroke="#FBCE67" stroke-width="0.2634" stroke-miterlimit="10" stroke-linecap="round" stroke-linejoin="round"/>
<path d="M107.9 65.9675L97.1413 79.808L101.695 81.8194L94.7888 100.333L107.87 79.9884L102.976 78.4972L107.9 65.9675Z" fill="#FBB040"/>
<path d="M146.924 112.588L135.523 116.531L137.394 119.401L126.461 127.486L141.643 120.663L139.381 117.966L146.924 112.588Z" fill="#FBB040"/>
<path d="M185.738 164.503L174.339 160.555L174.035 163.968L160.444 163.565L176.596 167.586L176.484 164.067L185.738 164.503Z" fill="#FBB040"/>
<path d="M207.748 217.659L193.765 207.087L191.814 211.667L173.209 205.011L193.728 217.817L195.154 212.904L207.748 217.659Z" fill="#FBB040"/>
<path d="M241.142 196.459H154.134C150.434 196.459 147.407 193.432 147.407 189.733V177.992C147.407 174.292 150.434 171.265 154.134 171.265H241.142C244.842 171.265 247.869 174.292 247.869 177.992V189.733C247.869 193.432 244.842 196.459 241.142 196.459Z" fill="#3C8CF8"/>
<path d="M153.937 193.942V203.025L160.681 194.482L153.937 193.942Z" fill="#3C8CF8"/>
<path d="M161.514 177.198L163.348 180.914L167.448 181.51L164.481 184.402L165.182 188.487L161.514 186.558L157.846 188.487L158.546 184.402L155.579 181.51L159.68 180.914L161.514 177.198Z" fill="#FBB040"/>
<path d="M179.538 177.198L181.372 180.914L185.473 181.51L182.506 184.402L183.206 188.487L179.538 186.558L175.87 188.487L176.571 184.402L173.603 181.51L177.704 180.914L179.538 177.198Z" fill="#FBB040"/>
<path d="M197.562 177.198L199.396 180.914L203.497 181.51L200.53 184.402L201.23 188.487L197.562 186.558L193.895 188.487L194.595 184.402L191.627 181.51L195.729 180.914L197.562 177.198Z" fill="#FBB040"/>
<path d="M215.587 177.198L217.421 180.914L221.522 181.51L218.554 184.402L219.254 188.487L215.587 186.558L211.919 188.487L212.619 184.402L209.652 181.51L213.753 180.914L215.587 177.198Z" fill="#FBB040"/>
<path d="M233.611 177.198L235.445 180.914L239.546 181.51L236.579 184.402L237.279 188.487L233.611 186.558L229.943 188.487L230.644 184.402L227.676 181.51L231.777 180.914L233.611 177.198Z" fill="white"/>
<path d="M101.541 120.764L102.408 122.24C102.477 122.357 102.599 122.433 102.735 122.443L104.443 122.564C104.785 122.589 104.95 122.994 104.722 123.25L103.587 124.532C103.497 124.633 103.462 124.773 103.495 124.905L103.907 126.567C103.989 126.899 103.655 127.182 103.341 127.045L101.771 126.361C101.647 126.307 101.503 126.317 101.388 126.39L99.9346 127.295C99.644 127.476 99.2722 127.245 99.3053 126.905L99.4706 125.201C99.4839 125.065 99.4294 124.932 99.3256 124.844L98.0153 123.742C97.7532 123.521 97.8582 123.096 98.1922 123.023L99.8644 122.653C99.9972 122.624 100.107 122.531 100.158 122.405L100.802 120.818C100.93 120.501 101.367 120.469 101.541 120.764Z" fill="#FBB040"/>
<path d="M217.303 220.416L217.607 221.258C217.632 221.325 217.687 221.375 217.756 221.393L218.621 221.619C218.794 221.664 218.84 221.888 218.699 221.998L217.993 222.548C217.937 222.591 217.906 222.66 217.91 222.73L217.962 223.624C217.973 223.802 217.774 223.915 217.626 223.815L216.885 223.313C216.827 223.273 216.752 223.265 216.686 223.291L215.853 223.617C215.686 223.682 215.517 223.528 215.567 223.356L215.815 222.497C215.835 222.428 215.82 222.355 215.775 222.3L215.207 221.608C215.094 221.47 215.188 221.261 215.367 221.256L216.261 221.226C216.332 221.224 216.397 221.186 216.436 221.127L216.918 220.373C217.015 220.223 217.242 220.248 217.303 220.416Z" fill="#FBB040"/>
<path d="M171.972 77.5095L172.84 78.9856C172.909 79.1027 173.031 79.1787 173.167 79.188L174.875 79.3098C175.216 79.3341 175.382 79.7396 175.154 79.9953L174.019 81.2771C173.929 81.3786 173.894 81.5184 173.927 81.6507L174.339 83.3124C174.421 83.6447 174.087 83.9272 173.773 83.7903L172.203 83.1065C172.079 83.0519 171.935 83.0624 171.82 83.1343L170.366 84.0397C170.076 84.2206 169.704 83.9898 169.737 83.6493L169.902 81.9453C169.916 81.8102 169.861 81.6768 169.757 81.5892L168.447 80.4866C168.185 80.2662 168.289 79.8411 168.624 79.7674L170.296 79.3979C170.429 79.3689 170.539 79.2761 170.59 79.1497L171.233 77.5628C171.362 77.2467 171.798 77.2142 171.972 77.5095Z" fill="#FBB040"/>
<path d="M170.336 124.996L171.204 126.472C171.273 126.589 171.395 126.665 171.53 126.674L173.239 126.796C173.58 126.82 173.745 127.226 173.518 127.482L172.382 128.764C172.293 128.866 172.258 129.005 172.291 129.138L172.703 130.799C172.785 131.132 172.451 131.414 172.137 131.277L170.566 130.593C170.442 130.539 170.299 130.549 170.183 130.621L168.73 131.527C168.439 131.708 168.067 131.477 168.1 131.136L168.266 129.432C168.279 129.297 168.224 129.164 168.121 129.076L166.81 127.974C166.548 127.753 166.653 127.328 166.987 127.254L168.659 126.885C168.792 126.855 168.902 126.763 168.953 126.637L169.597 125.05C169.725 124.733 170.162 124.701 170.336 124.996Z" fill="white"/>
<path d="M89.0706 71.1747L89.9383 72.6508C90.0073 72.768 90.1291 72.8439 90.2648 72.8532L91.9729 72.975C92.3145 72.9994 92.4798 73.4048 92.2525 73.6612L91.1168 74.943C91.0269 75.0445 90.9921 75.1842 91.0252 75.3159L91.437 76.9782C91.5194 77.3105 91.1847 77.593 90.8709 77.4561L89.3014 76.7723C89.1767 76.7178 89.0335 76.7282 88.9181 76.8007L87.4646 77.7061C87.174 77.887 86.8022 77.6562 86.8353 77.3157L87.0006 75.6117C87.0139 75.4766 86.9594 75.3432 86.8556 75.2556L85.5454 74.153C85.2832 73.9326 85.3882 73.5075 85.7223 73.4338L87.3944 73.0643C87.5272 73.0348 87.6368 72.9425 87.6879 72.8161L88.3317 71.2292C88.4604 70.9114 88.8972 70.8795 89.0706 71.1747Z" fill="white"/>
<path d="M241.739 156.061L242.322 157.671C242.368 157.798 242.474 157.895 242.606 157.93L244.262 158.363C244.594 158.449 244.682 158.878 244.411 159.088L243.06 160.14C242.953 160.223 242.894 160.354 242.902 160.49L243.002 162.199C243.022 162.541 242.641 162.757 242.358 162.565L240.941 161.605C240.828 161.529 240.686 161.513 240.559 161.562L238.964 162.186C238.645 162.311 238.322 162.015 238.417 161.687L238.892 160.042C238.929 159.911 238.9 159.77 238.814 159.665L237.729 158.341C237.512 158.077 237.692 157.678 238.034 157.667L239.746 157.61C239.882 157.605 240.007 157.534 240.08 157.42L241.003 155.978C241.187 155.69 241.622 155.739 241.739 156.061Z" fill="#FBB040"/>
<path d="M211.553 199.242L212.136 200.852C212.183 200.979 212.289 201.076 212.42 201.111L214.077 201.544C214.408 201.63 214.496 202.059 214.226 202.269L212.875 203.321C212.767 203.404 212.708 203.535 212.716 203.671L212.817 205.38C212.837 205.722 212.456 205.938 212.173 205.746L210.755 204.786C210.643 204.71 210.5 204.694 210.373 204.743L208.779 205.367C208.46 205.492 208.137 205.196 208.232 204.868L208.707 203.223C208.744 203.092 208.715 202.951 208.63 202.846L207.544 201.522C207.327 201.258 207.507 200.859 207.849 200.848L209.561 200.791C209.697 200.786 209.822 200.715 209.895 200.601L210.818 199.159C211.002 198.871 211.437 198.92 211.553 199.242Z" fill="#FBB040"/>
<path d="M236.441 90.6958L237.023 92.3058C237.07 92.4334 237.176 92.5303 237.308 92.5651L238.964 92.9978C239.295 93.0842 239.383 93.5128 239.113 93.7234L237.762 94.7749C237.654 94.8584 237.595 94.9895 237.603 95.1252L237.704 96.8345C237.724 97.1761 237.344 97.3924 237.06 97.2005L235.642 96.2406C235.53 96.1646 235.387 96.1483 235.26 96.1976L233.666 96.8211C233.347 96.9458 233.024 96.6506 233.119 96.3218L233.594 94.6769C233.632 94.5464 233.603 94.4054 233.517 94.3005L232.431 92.9763C232.214 92.7118 232.394 92.3128 232.737 92.3018L234.448 92.2449C234.584 92.2403 234.709 92.1695 234.782 92.0547L235.706 90.6128C235.889 90.3257 236.324 90.3739 236.441 90.6958Z" fill="white"/>
<path d="M161.598 61.9544L162.181 63.5645C162.228 63.6921 162.334 63.789 162.466 63.8238L164.122 64.2565C164.453 64.3429 164.541 64.7715 164.271 64.982L162.92 66.0336C162.812 66.1171 162.753 66.2482 162.761 66.3839L162.862 68.0932C162.882 68.4348 162.502 68.6511 162.218 68.4591L160.8 67.4992C160.688 67.4233 160.545 67.407 160.418 67.4569L158.824 68.0804C158.505 68.2051 158.182 67.9099 158.277 67.581L158.752 65.9361C158.79 65.8056 158.761 65.6647 158.675 65.5597L157.589 64.2356C157.372 63.9711 157.552 63.5721 157.895 63.561L159.606 63.5042C159.742 63.4996 159.867 63.4288 159.94 63.314L160.864 61.8721C161.047 61.5838 161.482 61.6325 161.598 61.9544Z" fill="white"/>
<path d="M187.207 104.028L187.711 104.847C187.751 104.912 187.82 104.953 187.896 104.957L188.856 105.006C189.048 105.016 189.146 105.242 189.021 105.388L188.398 106.12C188.349 106.178 188.331 106.257 188.35 106.33L188.6 107.258C188.65 107.444 188.466 107.606 188.288 107.533L187.4 107.166C187.329 107.137 187.249 107.145 187.185 107.186L186.38 107.711C186.218 107.816 186.007 107.69 186.022 107.498L186.095 106.54C186.101 106.464 186.069 106.39 186.01 106.342L185.262 105.737C185.113 105.617 185.167 105.377 185.354 105.332L186.288 105.106C186.362 105.088 186.422 105.035 186.45 104.963L186.793 104.065C186.862 103.887 187.107 103.864 187.207 104.028Z" fill="white"/>
<path d="M136.013 69.7427L136.517 70.5616C136.557 70.6266 136.627 70.6678 136.703 70.6718L137.662 70.7211C137.854 70.731 137.952 70.9566 137.827 71.1028L137.204 71.8347C137.155 71.8927 137.137 71.9716 137.157 72.0453L137.407 72.9733C137.457 73.1589 137.272 73.3213 137.095 73.2476L136.206 72.8811C136.135 72.8521 136.055 72.8596 135.991 72.9014L135.186 73.4257C135.025 73.5307 134.813 73.4054 134.828 73.2134L134.902 72.2552C134.907 72.1793 134.876 72.105 134.816 72.0569L134.069 71.4525C133.919 71.3319 133.973 71.0918 134.16 71.0465L135.094 70.8203C135.168 70.8023 135.229 70.749 135.256 70.6776L135.599 69.7798C135.668 69.6017 135.913 69.5791 136.013 69.7427Z" fill="white"/>
<path d="M80.58 69.3164L80.8845 70.1574C80.9089 70.2241 80.964 70.2745 81.033 70.2925L81.8983 70.5187C82.0712 70.564 82.1176 70.7878 81.9761 70.898L81.2702 71.4473C81.214 71.4908 81.1832 71.5592 81.1873 71.63L81.2395 72.5232C81.2499 72.7019 81.051 72.815 80.9031 72.7146L80.1624 72.2129C80.1038 72.1729 80.029 72.1648 79.9629 72.1909L79.1294 72.5168C78.963 72.5818 78.7936 72.4275 78.8435 72.2558L79.0917 71.3963C79.1115 71.3278 79.0964 71.2548 79.0511 71.1997L78.4839 70.5077C78.3702 70.3691 78.4647 70.1609 78.6434 70.1551L79.5378 70.1255C79.6085 70.1232 79.6741 70.086 79.7123 70.0263L80.1949 69.2729C80.2918 69.1232 80.5191 69.1482 80.58 69.3164Z" fill="#FBB040"/>
<path d="M245.347 96.3508L245.652 97.1918C245.676 97.2585 245.731 97.3089 245.8 97.3269L246.665 97.5531C246.838 97.5983 246.885 97.8222 246.744 97.9324L246.038 98.4817C245.982 98.5252 245.951 98.5936 245.955 98.6644L246.007 99.5576C246.017 99.7362 245.819 99.8493 245.671 99.749L244.93 99.2473C244.871 99.2073 244.797 99.1991 244.73 99.2252L243.897 99.5512C243.731 99.6162 243.562 99.4625 243.611 99.2902L243.859 98.4306C243.879 98.3622 243.864 98.2891 243.819 98.234L243.251 97.5421C243.138 97.404 243.232 97.1952 243.411 97.1894L244.305 97.1599C244.376 97.1575 244.442 97.1204 244.48 97.0607L244.962 96.3073C245.059 96.1576 245.286 96.1826 245.347 96.3508Z" fill="#FBB040"/>
<path d="M168.9 118.483L169.204 119.324C169.228 119.391 169.283 119.441 169.353 119.459L170.218 119.685C170.391 119.731 170.437 119.954 170.296 120.065L169.59 120.614C169.534 120.657 169.503 120.726 169.507 120.797L169.56 121.69C169.57 121.868 169.371 121.982 169.223 121.881L168.483 121.379C168.424 121.339 168.349 121.331 168.283 121.357L167.45 121.683C167.284 121.748 167.115 121.595 167.164 121.422L167.412 120.563C167.432 120.494 167.417 120.421 167.372 120.366L166.805 119.674C166.691 119.536 166.785 119.327 166.964 119.322L167.858 119.292C167.929 119.29 167.995 119.253 168.033 119.193L168.516 118.439C168.612 118.29 168.839 118.315 168.9 118.483Z" fill="#FBB040"/>
<path d="M238.791 147.67L239.096 148.511C239.12 148.578 239.175 148.628 239.244 148.646L240.11 148.873C240.282 148.918 240.329 149.142 240.187 149.252L239.481 149.802C239.425 149.845 239.394 149.914 239.399 149.985L239.451 150.878C239.461 151.056 239.262 151.169 239.114 151.069L238.374 150.567C238.315 150.527 238.24 150.519 238.174 150.545L237.341 150.871C237.175 150.936 237.005 150.783 237.055 150.61L237.304 149.751C237.323 149.682 237.308 149.609 237.263 149.554L236.696 148.862C236.582 148.724 236.677 148.515 236.855 148.51L237.75 148.48C237.82 148.478 237.886 148.441 237.924 148.381L238.407 147.627C238.503 147.477 238.73 147.502 238.791 147.67Z" fill="#FBB040"/>
<path d="M225.603 165.222L225.907 166.063C225.931 166.13 225.987 166.18 226.056 166.198L226.921 166.425C227.094 166.47 227.14 166.694 226.999 166.804L226.293 167.354C226.237 167.397 226.206 167.466 226.21 167.536L226.262 168.43C226.272 168.608 226.074 168.721 225.926 168.621L225.185 168.119C225.126 168.079 225.052 168.071 224.985 168.097L224.152 168.423C223.986 168.488 223.817 168.334 223.866 168.162L224.114 167.302C224.134 167.234 224.119 167.16 224.074 167.106L223.506 166.414C223.393 166.276 223.487 166.067 223.666 166.061L224.56 166.031C224.631 166.029 224.697 165.992 224.735 165.932L225.217 165.179C225.314 165.029 225.542 165.054 225.603 165.222Z" fill="white"/>
<path d="M84.9845 196.118L85.6178 209.648L52.2145 219.898L83.6081 195.924L84.9845 196.118Z" fill="#DAC7FF"/>
<path d="M52.2939 219.898L83.6876 195.924L68.3582 194.335L52.2939 219.898Z" fill="white"/>
<path d="M52.2939 219.898L85.0639 196.118L111.454 199.308L52.2939 219.898Z" fill="white"/>
<path d="M87.8613 193.681C88.0695 193.502 88.2754 193.321 88.4795 193.138" stroke="#383838" stroke-linecap="round" stroke-linejoin="round"/>
<path d="M89.6738 192.012C95.2482 186.508 98.9892 179.159 100.108 171.402C100.321 169.921 100.436 168.371 99.9288 166.964C98.7839 163.791 94.4559 162.488 91.4875 164.09C88.519 165.692 87.1578 169.516 87.9123 172.803C88.6669 176.091 91.2218 178.773 94.2425 180.273C97.2631 181.774 100.71 182.213 104.083 182.194C110.897 182.157 117.833 180.232 123.159 175.981C128.055 172.073 131.416 166.067 131.578 159.84" stroke="#383838" stroke-linecap="round" stroke-linejoin="round" stroke-dasharray="2.83 2.83"/>
<path d="M131.581 159.021C131.576 158.748 131.564 158.474 131.546 158.2" stroke="#383838" stroke-linecap="round" stroke-linejoin="round"/>
<path d="M79.7181 121.062C91.2498 121.062 100.598 111.713 100.598 100.182C100.598 88.65 91.2498 79.3017 79.7181 79.3017C68.1864 79.3017 58.8381 88.65 58.8381 100.182C58.8381 111.713 68.1864 121.062 79.7181 121.062Z" fill="#EA4E4E"/>
<path d="M71.4439 115.856L67.7006 125.464L83.0491 118.601L71.4439 115.856Z" fill="#EA4E4E"/>
<path d="M88.2285 95.1212C85.7159 90.8605 79.9333 94.5545 79.9084 94.5765C79.8828 94.5545 74.1008 90.8599 71.5877 95.1212C68.1367 100.973 79.8556 108.009 79.9072 108.04V108.041L79.9084 108.041L79.9095 108.041V108.04C79.9606 108.009 91.6789 100.973 88.2285 95.1212Z" fill="white"/>
<path d="M57.0323 32.2383H52.8327C52.756 31.695 52.5994 31.2124 52.3629 30.7905C52.1264 30.3622 51.8228 29.9979 51.4521 29.6974C51.0813 29.397 50.6531 29.1669 50.1673 29.0071C49.6879 28.8473 49.1669 28.7674 48.6044 28.7674C47.5881 28.7674 46.7028 29.0199 45.9485 29.5249C45.1942 30.0234 44.6094 30.7521 44.1939 31.7109C43.7784 32.6634 43.5707 33.8203 43.5707 35.1818C43.5707 36.5817 43.7784 37.7578 44.1939 38.7102C44.6158 39.6626 45.2038 40.3817 45.9581 40.8675C46.7124 41.3533 47.5849 41.5962 48.5756 41.5962C49.1317 41.5962 49.6463 41.5227 50.1193 41.3757C50.5987 41.2287 51.0238 41.0146 51.3945 40.7333C51.7653 40.4457 52.0721 40.0973 52.315 39.6882C52.5643 39.2791 52.7369 38.8125 52.8327 38.2884L57.0323 38.3075C56.9237 39.2088 56.652 40.0781 56.2173 40.9155C55.7891 41.7464 55.2106 42.4911 54.4819 43.1495C53.7596 43.8015 52.8967 44.3192 51.8931 44.7028C50.896 45.0799 49.7678 45.2685 48.5085 45.2685C46.7571 45.2685 45.1911 44.8722 43.8104 44.0795C42.4361 43.2869 41.3494 42.1396 40.5504 40.6374C39.7578 39.1353 39.3615 37.3168 39.3615 35.1818C39.3615 33.0405 39.7642 31.2188 40.5696 29.7166C41.375 28.2145 42.468 27.0703 43.8487 26.2841C45.2294 25.4915 46.7827 25.0952 48.5085 25.0952C49.6463 25.0952 50.701 25.255 51.6726 25.5746C52.6506 25.8942 53.5167 26.3608 54.271 26.9744C55.0252 27.5817 55.6388 28.3263 56.1119 29.2085C56.5913 30.0906 56.8981 31.1005 57.0323 32.2383ZM66.5868 45.2876C65.0975 45.2876 63.8095 44.9712 62.7228 44.3384C61.6426 43.6992 60.8084 42.8107 60.2203 41.6729C59.6323 40.5288 59.3382 39.2024 59.3382 37.6939C59.3382 36.1726 59.6323 34.843 60.2203 33.7053C60.8084 32.5611 61.6426 31.6726 62.7228 31.0398C63.8095 30.4006 65.0975 30.081 66.5868 30.081C68.0762 30.081 69.361 30.4006 70.4412 31.0398C71.5279 31.6726 72.3652 32.5611 72.9533 33.7053C73.5414 34.843 73.8354 36.1726 73.8354 37.6939C73.8354 39.2024 73.5414 40.5288 72.9533 41.6729C72.3652 42.8107 71.5279 43.6992 70.4412 44.3384C69.361 44.9712 68.0762 45.2876 66.5868 45.2876ZM66.606 42.1236C67.2836 42.1236 67.8493 41.9318 68.3031 41.5483C68.7569 41.1584 69.0989 40.6278 69.329 39.9567C69.5655 39.2855 69.6838 38.5217 69.6838 37.6651C69.6838 36.8086 69.5655 36.0447 69.329 35.3736C69.0989 34.7024 68.7569 34.1719 68.3031 33.782C67.8493 33.392 67.2836 33.1971 66.606 33.1971C65.9221 33.1971 65.3468 33.392 64.8801 33.782C64.4199 34.1719 64.0716 34.7024 63.835 35.3736C63.6049 36.0447 63.4899 36.8086 63.4899 37.6651C63.4899 38.5217 63.6049 39.2855 63.835 39.9567C64.0716 40.6278 64.4199 41.1584 64.8801 41.5483C65.3468 41.9318 65.9221 42.1236 66.606 42.1236ZM76.568 45V25.3636H84.3152C85.8045 25.3636 87.0733 25.6481 88.1216 26.217C89.1699 26.7795 89.9689 27.5625 90.5186 28.5661C91.0748 29.5632 91.3528 30.7138 91.3528 32.0178C91.3528 33.3217 91.0716 34.4723 90.5091 35.4695C89.9466 36.4666 89.1316 37.2433 88.0641 37.7994C87.003 38.3555 85.7182 38.6335 84.2097 38.6335H79.2718V35.3065H83.5385C84.3375 35.3065 84.9959 35.169 85.5137 34.8942C86.0378 34.6129 86.4277 34.2262 86.6834 33.734C86.9455 33.2354 87.0765 32.6634 87.0765 32.0178C87.0765 31.3658 86.9455 30.7969 86.6834 30.3111C86.4277 29.8189 86.0378 29.4386 85.5137 29.1701C84.9895 28.8952 84.3248 28.7578 83.5194 28.7578H80.7196V45H76.568ZM93.9727 45V30.2727H97.9326V32.8423H98.086C98.3545 31.9283 98.8051 31.2379 99.4379 30.7713C100.071 30.2983 100.799 30.0618 101.624 30.0618C101.829 30.0618 102.049 30.0746 102.286 30.1001C102.522 30.1257 102.73 30.1609 102.909 30.2056V33.8299C102.717 33.7724 102.452 33.7212 102.113 33.6765C101.774 33.6317 101.464 33.6094 101.183 33.6094C100.582 33.6094 100.045 33.7404 99.5722 34.0025C99.1056 34.2582 98.7348 34.6161 98.46 35.0763C98.1915 35.5366 98.0573 36.0671 98.0573 36.668V45H93.9727ZM110.989 45.2876C109.5 45.2876 108.212 44.9712 107.125 44.3384C106.045 43.6992 105.211 42.8107 104.623 41.6729C104.035 40.5288 103.741 39.2024 103.741 37.6939C103.741 36.1726 104.035 34.843 104.623 33.7053C105.211 32.5611 106.045 31.6726 107.125 31.0398C108.212 30.4006 109.5 30.081 110.989 30.081C112.479 30.081 113.763 30.4006 114.844 31.0398C115.93 31.6726 116.768 32.5611 117.356 33.7053C117.944 34.843 118.238 36.1726 118.238 37.6939C118.238 39.2024 117.944 40.5288 117.356 41.6729C116.768 42.8107 115.93 43.6992 114.844 44.3384C113.763 44.9712 112.479 45.2876 110.989 45.2876ZM111.008 42.1236C111.686 42.1236 112.252 41.9318 112.705 41.5483C113.159 41.1584 113.501 40.6278 113.731 39.9567C113.968 39.2855 114.086 38.5217 114.086 37.6651C114.086 36.8086 113.968 36.0447 113.731 35.3736C113.501 34.7024 113.159 34.1719 112.705 33.782C112.252 33.392 111.686 33.1971 111.008 33.1971C110.324 33.1971 109.749 33.392 109.282 33.782C108.822 34.1719 108.474 34.7024 108.237 35.3736C108.007 36.0447 107.892 36.8086 107.892 37.6651C107.892 38.5217 108.007 39.2855 108.237 39.9567C108.474 40.6278 108.822 41.1584 109.282 41.5483C109.749 41.9318 110.324 42.1236 111.008 42.1236ZM127.219 45V25.3636H140.221V28.7866H131.371V33.4656H139.358V36.8885H131.371V45H127.219ZM148.567 45.2876C147.052 45.2876 145.748 44.9808 144.655 44.3672C143.569 43.7472 142.731 42.8714 142.143 41.7401C141.555 40.6023 141.261 39.2567 141.261 37.7035C141.261 36.1886 141.555 34.859 142.143 33.7148C142.731 32.5707 143.559 31.679 144.627 31.0398C145.7 30.4006 146.96 30.081 148.404 30.081C149.376 30.081 150.28 30.2376 151.118 30.5508C151.961 30.8576 152.696 31.321 153.323 31.9411C153.956 32.5611 154.448 33.3409 154.799 34.2805C155.151 35.2138 155.327 36.3068 155.327 37.5597V38.6815H142.891V36.1502H151.482C151.482 35.5621 151.354 35.0412 151.098 34.5874C150.843 34.1335 150.488 33.7788 150.034 33.5231C149.587 33.261 149.066 33.13 148.471 33.13C147.851 33.13 147.302 33.2738 146.822 33.5614C146.349 33.8427 145.978 34.223 145.71 34.7024C145.441 35.1754 145.304 35.7028 145.298 36.2844V38.6911C145.298 39.4197 145.432 40.0494 145.7 40.5799C145.975 41.1104 146.362 41.5195 146.861 41.8072C147.359 42.0948 147.95 42.2386 148.634 42.2386C149.088 42.2386 149.504 42.1747 149.881 42.0469C150.258 41.919 150.581 41.7273 150.849 41.4716C151.118 41.2159 151.322 40.9027 151.463 40.532L155.241 40.7812C155.049 41.6889 154.656 42.4815 154.061 43.1591C153.473 43.8303 152.712 44.3544 151.779 44.7315C150.852 45.1023 149.782 45.2876 148.567 45.2876ZM164.704 45.2876C163.189 45.2876 161.885 44.9808 160.792 44.3672C159.705 43.7472 158.868 42.8714 158.28 41.7401C157.692 40.6023 157.398 39.2567 157.398 37.7035C157.398 36.1886 157.692 34.859 158.28 33.7148C158.868 32.5707 159.696 31.679 160.763 31.0398C161.837 30.4006 163.096 30.081 164.541 30.081C165.513 30.081 166.417 30.2376 167.254 30.5508C168.098 30.8576 168.833 31.321 169.46 31.9411C170.092 32.5611 170.585 33.3409 170.936 34.2805C171.288 35.2138 171.464 36.3068 171.464 37.5597V38.6815H159.028V36.1502H167.619C167.619 35.5621 167.491 35.0412 167.235 34.5874C166.979 34.1335 166.625 33.7788 166.171 33.5231C165.723 33.261 165.203 33.13 164.608 33.13C163.988 33.13 163.438 33.2738 162.959 33.5614C162.486 33.8427 162.115 34.223 161.847 34.7024C161.578 35.1754 161.441 35.7028 161.434 36.2844V38.6911C161.434 39.4197 161.569 40.0494 161.837 40.5799C162.112 41.1104 162.499 41.5195 162.997 41.8072C163.496 42.0948 164.087 42.2386 164.771 42.2386C165.225 42.2386 165.64 42.1747 166.017 42.0469C166.395 41.919 166.717 41.7273 166.986 41.4716C167.254 41.2159 167.459 40.9027 167.6 40.532L171.377 40.7812C171.185 41.6889 170.792 42.4815 170.198 43.1591C169.61 43.8303 168.849 44.3544 167.916 44.7315C166.989 45.1023 165.918 45.2876 164.704 45.2876ZM179.556 45.2397C178.437 45.2397 177.424 44.9521 176.516 44.3768C175.615 43.7951 174.899 42.9418 174.369 41.8168C173.845 40.6854 173.582 39.2983 173.582 37.6555C173.582 35.968 173.854 34.565 174.397 33.4464C174.941 32.3214 175.663 31.4808 176.564 30.9247C177.472 30.3622 178.466 30.081 179.546 30.081C180.371 30.081 181.058 30.2216 181.608 30.5028C182.164 30.7777 182.611 31.1229 182.95 31.5384C183.295 31.9474 183.557 32.3501 183.736 32.7464H183.861V25.3636H187.936V45H183.909V42.6413H183.736C183.544 43.0504 183.273 43.4563 182.921 43.859C182.576 44.2553 182.125 44.5845 181.569 44.8466C181.02 45.1087 180.348 45.2397 179.556 45.2397ZM180.85 41.9893C181.509 41.9893 182.065 41.8104 182.519 41.4524C182.979 41.0881 183.33 40.5799 183.573 39.9279C183.823 39.2759 183.947 38.5121 183.947 37.6364C183.947 36.7607 183.826 36 183.583 35.3544C183.34 34.7088 182.988 34.2102 182.528 33.8587C182.068 33.5071 181.509 33.3313 180.85 33.3313C180.179 33.3313 179.613 33.5135 179.153 33.8778C178.693 34.2422 178.345 34.7472 178.108 35.3928C177.872 36.0384 177.753 36.7862 177.753 37.6364C177.753 38.4929 177.872 39.2504 178.108 39.9087C178.351 40.5607 178.699 41.0721 179.153 41.4428C179.613 41.8072 180.179 41.9893 180.85 41.9893ZM191.371 45V25.3636H199.233C200.678 25.3636 201.882 25.5778 202.848 26.006C203.813 26.4343 204.538 27.0288 205.024 27.7894C205.51 28.5437 205.753 29.413 205.753 30.3974C205.753 31.1644 205.599 31.8388 205.293 32.4205C204.986 32.9957 204.564 33.4687 204.027 33.8395C203.496 34.2038 202.889 34.4627 202.205 34.6161V34.8079C202.953 34.8398 203.653 35.0508 204.305 35.4407C204.963 35.8306 205.497 36.3771 205.906 37.0803C206.315 37.777 206.52 38.608 206.52 39.5732C206.52 40.6151 206.261 41.5451 205.743 42.3633C205.232 43.1751 204.474 43.8175 203.471 44.2905C202.467 44.7635 201.23 45 199.76 45H191.371ZM195.522 41.6058H198.907C200.064 41.6058 200.908 41.3853 201.438 40.9442C201.969 40.4968 202.234 39.9023 202.234 39.1609C202.234 38.6175 202.103 38.1381 201.841 37.7227C201.579 37.3072 201.205 36.9812 200.719 36.7447C200.24 36.5082 199.668 36.3899 199.003 36.3899H195.522V41.6058ZM195.522 33.5806H198.6C199.169 33.5806 199.674 33.4815 200.115 33.2834C200.563 33.0788 200.914 32.7912 201.17 32.4205C201.432 32.0497 201.563 31.6055 201.563 31.0877C201.563 30.3782 201.31 29.8061 200.805 29.3714C200.307 28.9368 199.597 28.7195 198.677 28.7195H195.522V33.5806ZM213.344 45.2781C212.405 45.2781 211.567 45.1151 210.832 44.7891C210.097 44.4567 209.515 43.9677 209.087 43.3221C208.665 42.6701 208.454 41.8583 208.454 40.8867C208.454 40.0685 208.604 39.3814 208.905 38.8253C209.205 38.2692 209.614 37.8217 210.132 37.483C210.65 37.1442 211.238 36.8885 211.896 36.7159C212.561 36.5433 213.258 36.4219 213.987 36.3516C214.843 36.2621 215.533 36.179 216.058 36.1023C216.582 36.0192 216.962 35.8977 217.199 35.7379C217.435 35.5781 217.553 35.3416 217.553 35.0284V34.9709C217.553 34.3636 217.362 33.8938 216.978 33.5614C216.601 33.229 216.064 33.0629 215.367 33.0629C214.632 33.0629 214.047 33.2259 213.613 33.5518C213.178 33.8714 212.89 34.2741 212.75 34.7599L208.972 34.4531C209.164 33.5582 209.541 32.7848 210.103 32.1328C210.666 31.4744 211.391 30.9695 212.28 30.6179C213.175 30.2599 214.21 30.081 215.386 30.081C216.205 30.081 216.988 30.1768 217.736 30.3686C218.49 30.5604 219.158 30.8576 219.739 31.2603C220.328 31.663 220.791 32.1808 221.13 32.8136C221.468 33.44 221.638 34.1911 221.638 35.0668V45H217.764V42.9577H217.649C217.413 43.418 217.096 43.8239 216.7 44.1754C216.304 44.5206 215.828 44.7923 215.271 44.9904C214.715 45.1822 214.073 45.2781 213.344 45.2781ZM214.514 42.4592C215.115 42.4592 215.645 42.3409 216.106 42.1044C216.566 41.8615 216.927 41.5355 217.189 41.1264C217.451 40.7173 217.582 40.2539 217.582 39.7362V38.1733C217.454 38.2564 217.278 38.3331 217.055 38.4034C216.837 38.4673 216.591 38.5281 216.316 38.5856C216.042 38.6367 215.767 38.6847 215.492 38.7294C215.217 38.7678 214.968 38.8029 214.744 38.8349C214.265 38.9052 213.846 39.017 213.488 39.1705C213.13 39.3239 212.852 39.5316 212.654 39.7937C212.456 40.0494 212.357 40.369 212.357 40.7525C212.357 41.3086 212.558 41.7337 212.961 42.0277C213.37 42.3153 213.888 42.4592 214.514 42.4592ZM231.461 45.2876C229.952 45.2876 228.655 44.968 227.568 44.3288C226.488 43.6832 225.657 42.7884 225.075 41.6442C224.5 40.5 224.212 39.1832 224.212 37.6939C224.212 36.1854 224.503 34.8622 225.085 33.7244C225.673 32.5803 226.507 31.6886 227.587 31.0494C228.668 30.4038 229.952 30.081 231.442 30.081C232.726 30.081 233.851 30.3143 234.817 30.7809C235.782 31.2475 236.546 31.9027 237.108 32.7464C237.671 33.5902 237.981 34.581 238.038 35.7188H234.184C234.075 34.9837 233.788 34.3924 233.321 33.945C232.861 33.4911 232.257 33.2642 231.509 33.2642C230.876 33.2642 230.323 33.4368 229.85 33.782C229.383 34.1207 229.019 34.6161 228.757 35.2681C228.495 35.9201 228.364 36.7095 228.364 37.6364C228.364 38.576 228.492 39.375 228.747 40.0334C229.009 40.6918 229.377 41.1935 229.85 41.5387C230.323 41.8839 230.876 42.0565 231.509 42.0565C231.975 42.0565 232.394 41.9606 232.765 41.7688C233.142 41.5771 233.452 41.299 233.695 40.9347C233.944 40.5639 234.107 40.1197 234.184 39.6019H238.038C237.974 40.7269 237.668 41.7177 237.118 42.5742C236.574 43.4244 235.823 44.0891 234.865 44.5685C233.906 45.0479 232.771 45.2876 231.461 45.2876ZM244.354 40.7621L244.364 35.8626H244.958L249.676 30.2727H254.364L248.027 37.6747H247.058L244.354 40.7621ZM240.653 45V25.3636H244.738V45H240.653ZM249.858 45L245.524 38.5856L248.247 35.6996L254.642 45H249.858Z" fill="url(#paint0_linear_19_232)"/>
<rect x="99" y="246" width="95" height="37" rx="18.5" fill="#6057D7"/>
<path d="M143.179 263.099C143.061 262.716 142.897 262.373 142.689 262.07C142.485 261.762 142.239 261.499 141.95 261.281C141.666 261.063 141.339 260.9 140.97 260.791C140.601 260.678 140.198 260.621 139.763 260.621C138.982 260.621 138.286 260.817 137.675 261.21C137.064 261.603 136.583 262.181 136.233 262.943C135.887 263.701 135.714 264.624 135.714 265.713C135.714 266.812 135.887 267.742 136.233 268.504C136.579 269.267 137.059 269.847 137.675 270.244C138.29 270.637 139.005 270.834 139.82 270.834C140.558 270.834 141.197 270.692 141.737 270.408C142.282 270.124 142.701 269.721 142.994 269.2C143.288 268.675 143.435 268.059 143.435 267.354L144.031 267.446H140.082V265.386H145.984V267.134C145.984 268.379 145.719 269.456 145.189 270.365C144.659 271.274 143.929 271.975 143.001 272.467C142.073 272.955 141.008 273.199 139.805 273.199C138.465 273.199 137.289 272.898 136.276 272.297C135.267 271.691 134.479 270.831 133.911 269.719C133.347 268.601 133.065 267.276 133.065 265.741C133.065 264.567 133.231 263.518 133.562 262.595C133.899 261.672 134.367 260.888 134.969 260.244C135.57 259.596 136.276 259.103 137.085 258.767C137.895 258.426 138.776 258.256 139.727 258.256C140.532 258.256 141.283 258.374 141.979 258.611C142.675 258.843 143.293 259.174 143.832 259.605C144.377 260.036 144.824 260.547 145.175 261.139C145.525 261.731 145.755 262.384 145.864 263.099H143.179ZM153.177 273.213C152.112 273.213 151.189 272.979 150.407 272.51C149.626 272.041 149.02 271.385 148.589 270.543C148.163 269.7 147.95 268.715 147.95 267.588C147.95 266.461 148.163 265.474 148.589 264.626C149.02 263.779 149.626 263.121 150.407 262.652C151.189 262.183 152.112 261.949 153.177 261.949C154.243 261.949 155.166 262.183 155.947 262.652C156.728 263.121 157.332 263.779 157.758 264.626C158.189 265.474 158.404 266.461 158.404 267.588C158.404 268.715 158.189 269.7 157.758 270.543C157.332 271.385 156.728 272.041 155.947 272.51C155.166 272.979 154.243 273.213 153.177 273.213ZM153.191 271.153C153.769 271.153 154.252 270.995 154.64 270.678C155.029 270.356 155.317 269.925 155.507 269.385C155.701 268.845 155.798 268.244 155.798 267.581C155.798 266.913 155.701 266.31 155.507 265.77C155.317 265.225 155.029 264.792 154.64 264.47C154.252 264.148 153.769 263.987 153.191 263.987C152.6 263.987 152.107 264.148 151.714 264.47C151.326 264.792 151.035 265.225 150.841 265.77C150.651 266.31 150.556 266.913 150.556 267.581C150.556 268.244 150.651 268.845 150.841 269.385C151.035 269.925 151.326 270.356 151.714 270.678C152.107 270.995 152.6 271.153 153.191 271.153Z" fill="white"/>
</g>
<defs>
<linearGradient id="paint0_linear_19_232" x1="38" y1="42.6364" x2="256" y2="42.6364" gradientUnits="userSpaceOnUse">
<stop stop-color="#2577FE"/>
<stop offset="1" stop-color="#2577FE" stop-opacity="0.67"/>
</linearGradient>
<clipPath id="clip0_19_232">
<rect width="290" height="290" fill="white"/>
</clipPath>
</defs>
</svg>
